<?xml version="1.0" standalone="no"?>
<!DOCTYPE svg PUBLIC "-//W3C//DTD SVG 20010904//EN"
 "http://www.w3.org/TR/2001/REC-SVG-20010904/DTD/svg10.dtd">
<svg version="1.0" xmlns="http://www.w3.org/2000/svg"
 width="300.000000pt" height="300.000000pt" viewBox="0 0 300.000000 300.000000"
 preserveAspectRatio="xMidYMid meet">
<metadata>
Created by potrace 1.14, written by Peter Selinger 2001-2017
</metadata>
<g transform="translate(0.000000,300.000000) scale(0.100000,-0.100000)"
fill="#000000" stroke="none">
<path d="M1344 2986 c-210 -48 -451 -204 -704 -456 -78 -77 -174 -186 -227
-255 -21 -27 -44 -56 -51 -64 -36 -38 -185 -278 -225 -361 -78 -165 -97 -254
-92 -420 12 -342 173 -701 429 -953 189 -186 506 -340 786 -383 14 -2 52 -8
85 -13 100 -17 387 -6 481 18 530 133 888 582 1090 1368 18 73 36 147 39 165
4 18 10 49 14 69 18 80 -76 425 -163 599 -82 163 -154 242 -289 313 -40 21
-110 59 -157 85 -273 148 -467 234 -618 273 -102 26 -312 34 -398 15z"/>
</g>
</svg>
